<svg xmlns="http://www.w3.org/2000/svg" width="28" height="28" viewBox="0 0 28 28"><defs><style>.a{fill:#7fc4fd;}</style></defs><path class="a" d="M29.457,24.215l-1.333-5.146h0l-4.2-15.452A1.333,1.333,0,0,0,22.3,2.671L17.138,4a1.333,1.333,0,0,0-.973-.44H2.833A1.333,1.333,0,0,0,1.5,4.9V26.228a1.333,1.333,0,0,0,1.333,1.333H16.165A1.333,1.333,0,0,0,17.5,26.228V15.563l2.933,10.959a1.333,1.333,0,0,0,1.333.987,1.534,1.534,0,0,0,.347,0l6.439-1.72a1.333,1.333,0,0,0,.813-.627,1.4,1.4,0,0,0,.093-.947Zm-21.331.733h-4V22.282h4Zm0-5.333h-4v-8h4Zm0-10.666h-4V6.284h4Zm6.666,16h-4V22.282h4Zm0-5.333h-4v-8h4Zm0-10.666h-4V6.284h4Zm3-2.32,3.866-1.04.693,2.573L18.485,9.2Zm3.453,12.879-2.066-7.733,3.866-1.04,2.066,7.733Zm1.333,5.146-.693-2.573,3.866-1.04.693,2.573Z" transform="translate(-1.5 -2.627)"/></svg>