<svg xmlns="http://www.w3.org/2000/svg" width="28" height="28" viewBox="0 0 28 28"><defs><style>.a{fill:#7fc4fd;}</style></defs><path class="a" d="M29.048,12.57,26.4,11.688,27.648,9.2a1.4,1.4,0,0,0-.266-1.6L24.4,4.618a1.4,1.4,0,0,0-1.61-.266L20.3,5.6l-.882-2.646A1.4,1.4,0,0,0,18.1,2H13.9a1.4,1.4,0,0,0-1.33.952L11.688,5.6,9.2,4.352a1.4,1.4,0,0,0-1.6.266L4.618,7.6a1.4,1.4,0,0,0-.266,1.61L5.6,11.7l-2.646.882A1.4,1.4,0,0,0,2,13.9v4.2a1.4,1.4,0,0,0,.952,1.33l2.646.882L4.352,22.8a1.4,1.4,0,0,0,.266,1.6L7.6,27.382a1.4,1.4,0,0,0,1.61.266L11.7,26.4l.882,2.646a1.4,1.4,0,0,0,1.33.952h4.2a1.4,1.4,0,0,0,1.33-.952l.882-2.646,2.492,1.246a1.4,1.4,0,0,0,1.582-.266L27.382,24.4a1.4,1.4,0,0,0,.266-1.61L26.4,20.3l2.646-.882A1.4,1.4,0,0,0,30,18.1V13.9a1.4,1.4,0,0,0-.952-1.33ZM27.2,17.092l-1.68.56A2.8,2.8,0,0,0,23.9,21.6l.8,1.6-1.54,1.54L21.6,23.9a2.8,2.8,0,0,0-3.906,1.624l-.56,1.68H14.908l-.56-1.68A2.8,2.8,0,0,0,10.4,23.9l-1.6.8-1.54-1.54L8.1,21.6A2.8,2.8,0,0,0,6.48,17.652l-1.68-.56V14.908l1.68-.56A2.8,2.8,0,0,0,8.1,10.4l-.8-1.554,1.54-1.54,1.554.8A2.8,2.8,0,0,0,14.348,6.48l.56-1.68h2.184l.56,1.68A2.8,2.8,0,0,0,21.6,8.1l1.6-.8,1.54,1.54L23.9,10.4a2.8,2.8,0,0,0,1.624,3.906l1.68.56ZM16,10.4A5.6,5.6,0,1,0,21.6,16,5.6,5.6,0,0,0,16,10.4Zm0,8.4A2.8,2.8,0,1,1,18.8,16,2.8,2.8,0,0,1,16,18.8Z" transform="translate(-2 -2)"/></svg>